<?xml version="1.0" encoding="utf-8"?>
<!-- Generator: Adobe Illustrator 22.1.0, SVG Export Plug-In . SVG Version: 6.00 Build 0)  -->
<svg version="1.1" id="Layer_1" xmlns="http://www.w3.org/2000/svg" xmlns:xlink="http://www.w3.org/1999/xlink" x="0px" y="0px"
	 viewBox="0 0 110 137.5" style="enable-background:new 0 0 110 137.5;" xml:space="preserve">
<style type="text/css">
	.st0{fill:#FF2700;}
	.st1{fill:#00FF23;}
	.st2{fill:none;stroke:#707070;stroke-width:1.5;stroke-miterlimit:10;}
</style>
<path class="st1" d="M105.2,57.7L105.2,57.7v-0.2v-0.1v-0.1l0,0l0,0c0-0.1,0-0.1-0.1-0.2l0,0c0-0.1-0.1-0.1-0.1-0.2l-0.1-0.1l0,0
	c-0.1,0-0.1-0.1-0.2-0.1c0,0-0.1,0-0.1-0.1l0,0L33.9,33.9c-1.1-0.3-2.1-0.2-2.9,0.4c-0.8,0.6-1.3,1.5-1.3,2.6l-0.1,9.7L6.1,62.7
	C5,63.4,4.6,64.2,4.9,65c0.2,0.7,0.9,1,2,1c0.1,0,0.3,0,0.4,0l22.5-1.7V73c0,1.1,0.5,2.1,1.2,2.7c0.6,0.4,1.3,0.7,2,0.7
	c0.3,0,0.6,0,0.9-0.1l70.5-17.6l0,0l0,0c0,0,0,0,0.1,0c0,0,0.1,0,0.1-0.1l0.1-0.1c0,0,0,0,0.1-0.1l0.1-0.1c0,0,0.1-0.1,0.1-0.2l0,0
	c0,0,0,0,0-0.1l0,0l0,0v-0.1v-0.1l0,0C105.2,57.8,105.2,57.8,105.2,57.7z M31.7,36.9c0-0.5,0.2-0.8,0.5-1s0.7-0.2,1.1-0.1L92.8,55
	l-61.2-8.8L31.7,36.9z M30.8,48.2L95,57.4L7.8,63.9L30.8,48.2z M33.5,74.3c-0.5,0.1-0.9,0.1-1.2-0.2c-0.3-0.2-0.5-0.6-0.5-1.1v-8.8
	l60.8-4.6L33.5,74.3z"/>
</svg>
